<?xml version="1.0" encoding="UTF-8"?>
<svg id="Layer_2" data-name="Layer 2" xmlns="http://www.w3.org/2000/svg" viewBox="0 0 1699 1884">
  <defs>
    <style>
      .cls-1 {
        fill: #e5d9b6;
      }

      .cls-2 {
        fill: none;
        stroke: #bf5e41;
        stroke-dasharray: 0 0 9.98 49.9;
        stroke-linecap: round;
        stroke-miterlimit: 10;
        stroke-width: 19px;
      }
    </style>
  </defs>
  <path class="cls-2" d="m-77.39,627.44C118.97,184.99,1521.68,16.32,1578.5,246.5c18.05,73.12,26.76,207.29,0,276-67.16,172.47-148,188-375,97-83.22-33.36-265-31-335,76-58.61,89.58-53.48,199.68-27.5,315.5,23.89,106.51,104.95,197.38,201,231,118.31,41.41,567.5-142.5,562.5,148.5-3.4,197.71-37,309-196,383-111.69,51.98-256-95-471-61-483.85,76.52-1330.08,230.37-1443.54-296.55"/>
  <path class="cls-1" d="m1364.48,583.23c2.92,0,5.42-1.04,7.49-3.12,2.07-2.08,3.11-4.58,3.11-7.51s-1.04-5.42-3.12-7.49c-2.08-2.07-4.58-3.11-7.51-3.11s-5.42,1.04-7.49,3.12c-2.07,2.08-3.11,4.58-3.11,7.51s1.04,5.42,3.12,7.49c2.08,2.07,4.58,3.11,7.51,3.11Zm-.01,62.18c-16.28-13.85-28.44-26.72-36.47-38.6s-12.06-22.88-12.06-32.99c0-15.17,4.88-27.25,14.64-36.25,9.76-9,21.06-13.5,33.9-13.5s24.14,4.5,33.9,13.5c9.76,9,14.64,21.08,14.64,36.25,0,10.11-4.02,21.11-12.06,32.99s-20.2,24.75-36.47,38.6Z"/>
  <path class="cls-1" d="m1581.48,1205.23c2.92,0,5.42-1.04,7.49-3.12,2.07-2.08,3.11-4.58,3.11-7.51s-1.04-5.42-3.12-7.49c-2.08-2.07-4.58-3.11-7.51-3.11s-5.42,1.04-7.49,3.12c-2.07,2.08-3.11,4.58-3.11,7.51s1.04,5.42,3.12,7.49c2.08,2.07,4.58,3.11,7.51,3.11Zm-.01,62.18c-16.28-13.85-28.44-26.72-36.47-38.6-8.04-11.88-12.06-22.88-12.06-32.99,0-15.17,4.88-27.25,14.64-36.25,9.76-9,21.06-13.5,33.9-13.5s24.14,4.5,33.9,13.5c9.76,9,14.64,21.08,14.64,36.25,0,10.11-4.02,21.11-12.06,32.99-8.04,11.88-20.2,24.75-36.47,38.6Z"/>
  <path class="cls-1" d="m836.48,94.23c2.92,0,5.42-1.04,7.49-3.12,2.07-2.08,3.11-4.58,3.11-7.51s-1.04-5.42-3.12-7.49c-2.08-2.07-4.58-3.11-7.51-3.11s-5.42,1.04-7.49,3.12c-2.07,2.08-3.11,4.58-3.11,7.51s1.04,5.42,3.12,7.49c2.08,2.07,4.58,3.11,7.51,3.11Zm-.01,62.18c-16.28-13.85-28.44-26.72-36.47-38.6s-12.06-22.88-12.06-32.99c0-15.17,4.88-27.25,14.64-36.25,9.76-9,21.06-13.5,33.9-13.5s24.14,4.5,33.9,13.5c9.76,9,14.64,21.08,14.64,36.25,0,10.11-4.02,21.11-12.06,32.99s-20.2,24.75-36.47,38.6Z"/>
  <path class="cls-1" d="m137.48,1703.23c2.92,0,5.42-1.04,7.49-3.12,2.07-2.08,3.11-4.58,3.11-7.51s-1.04-5.42-3.12-7.49c-2.08-2.07-4.58-3.11-7.51-3.11s-5.42,1.04-7.49,3.12c-2.07,2.08-3.11,4.58-3.11,7.51s1.04,5.42,3.12,7.49c2.08,2.07,4.58,3.11,7.51,3.11Zm-.01,62.18c-16.28-13.85-28.44-26.72-36.47-38.6s-12.06-22.88-12.06-32.99c0-15.17,4.88-27.25,14.64-36.25,9.76-9,21.06-13.5,33.9-13.5s24.14,4.5,33.9,13.5c9.76,9,14.64,21.08,14.64,36.25,0,10.11-4.02,21.11-12.06,32.99s-20.2,24.75-36.47,38.6Z"/>
  <path class="cls-1" d="m1026.48,1617.23c2.92,0,5.42-1.04,7.49-3.12,2.07-2.08,3.11-4.58,3.11-7.51s-1.04-5.42-3.12-7.49c-2.08-2.07-4.58-3.11-7.51-3.11s-5.42,1.04-7.49,3.12c-2.07,2.08-3.11,4.58-3.11,7.51s1.04,5.42,3.12,7.49c2.08,2.07,4.58,3.11,7.51,3.11Zm-.01,62.18c-16.28-13.85-28.44-26.72-36.47-38.6s-12.06-22.88-12.06-32.99c0-15.17,4.88-27.25,14.64-36.25,9.76-9,21.06-13.5,33.9-13.5s24.14,4.5,33.9,13.5c9.76,9,14.64,21.08,14.64,36.25,0,10.11-4.02,21.11-12.06,32.99s-20.2,24.75-36.47,38.6Z"/>
</svg>