<?xml version="1.0" encoding="utf-8"?>
<!-- Generator: Adobe Illustrator 27.1.1, SVG Export Plug-In . SVG Version: 6.00 Build 0)  -->
<svg version="1.1" id="Layer_1" xmlns="http://www.w3.org/2000/svg" xmlns:xlink="http://www.w3.org/1999/xlink" x="0px" y="0px"
	 viewBox="0 0 48 48" style="enable-background:new 0 0 48 48;" xml:space="preserve">
<style type="text/css">
	.st0{fill:#FFFFFF;}
</style>
<path class="st0" d="M26.2,46.4V34.2l-4.5-4.1l-2,8.9L5.5,36.1l0.7-3.8l9.9,2l3.4-17l-4.1,2v6.9h-4.1v-9.6l8.9-3.5
	c1.1-0.4,1.8-0.8,2.3-0.9c0.5-0.1,1-0.2,1.4-0.2c0.8,0,1.4,0.2,2,0.5c0.6,0.4,1.1,0.8,1.5,1.5l2.2,3.3c0.8,1.3,2,2.4,3.4,3.4
	c1.5,1,3.2,1.4,5.3,1.4v4.1c-2.3,0-4.3-0.5-6-1.4c-1.7-0.9-3.4-2.4-4.9-4.3l-1.7,6.8l4.4,4.1v15.1H26.2z M27.1,9.8
	c-1.2,0-2.2-0.4-3-1.2c-0.8-0.8-1.2-1.8-1.2-3c0-1.2,0.4-2.2,1.2-3c0.8-0.8,1.8-1.2,3-1.2c1.1,0,2.1,0.4,2.9,1.2s1.2,1.8,1.2,3
	c0,1.2-0.4,2.1-1.2,3C29.2,9.4,28.2,9.8,27.1,9.8z"/>
</svg>
