<?xml version="1.0" encoding="utf-8"?>
<!-- Generator: Adobe Illustrator 27.1.1, SVG Export Plug-In . SVG Version: 6.00 Build 0)  -->
<svg version="1.1" id="Layer_1" xmlns="http://www.w3.org/2000/svg" xmlns:xlink="http://www.w3.org/1999/xlink" x="0px" y="0px"
	 viewBox="0 0 48 48" style="enable-background:new 0 0 48 48;" xml:space="preserve">
<style type="text/css">
	.st0{fill:#FFFFFF;}
</style>
<path class="st0" d="M21.8,43.9c-2.5-0.3-4.9-1-7.1-2.1c-2.2-1.1-4-2.6-5.6-4.4s-2.8-3.9-3.7-6.2S4.1,26.5,4.1,24
	c0-5.2,1.7-9.7,5.1-13.5s7.6-6,12.7-6.5v3c-4.3,0.6-7.8,2.6-10.6,5.8S7.1,19.7,7.1,24s1.4,8,4.2,11.2s6.3,5.1,10.6,5.8V43.9z M24,34
	L14,24l2.1-2.1l6.4,6.4V14h3v14.2l6.4-6.4L34,24L24,34z M26.2,43.9v-3c1.5-0.2,3-0.6,4.4-1.2c1.4-0.6,2.7-1.4,3.9-2.3l2.2,2.2
	c-1.5,1.2-3.2,2.1-5,2.9C30,43.3,28.1,43.7,26.2,43.9z M34.6,10.6c-1.3-0.9-2.6-1.7-4-2.3c-1.4-0.6-2.9-1-4.4-1.3V4
	c1.9,0.2,3.8,0.7,5.5,1.5c1.8,0.8,3.4,1.7,5,2.9L34.6,10.6z M39.6,36.5l-2.2-2.1c1-1.2,1.7-2.6,2.3-4c0.6-1.4,1-2.9,1.2-4.4h3
	c-0.2,1.9-0.7,3.8-1.5,5.6C41.8,33.4,40.8,35,39.6,36.5z M40.9,21.9c-0.2-1.5-0.6-3-1.2-4.4c-0.6-1.4-1.3-2.8-2.3-4l2.3-2.1
	c1.2,1.5,2.1,3.2,2.8,4.9c0.7,1.8,1.1,3.6,1.3,5.5H40.9z"/>
</svg>
