<?xml version="1.0" encoding="utf-8"?>
<!-- Generator: Adobe Illustrator 27.1.1, SVG Export Plug-In . SVG Version: 6.00 Build 0)  -->
<svg version="1.1" id="Layer_1" xmlns="http://www.w3.org/2000/svg" xmlns:xlink="http://www.w3.org/1999/xlink" x="0px" y="0px"
	 viewBox="0 0 48 48" style="enable-background:new 0 0 48 48;" xml:space="preserve">
<style type="text/css">
	.st0{fill:#FFFFFF;}
</style>
<path class="st0" d="M9,39h2.2l22.2-22.1l-2.2-2.2L9,36.8V39z M39.7,14.7l-6.4-6.4l2.1-2.1c0.6-0.6,1.3-0.8,2.1-0.8
	c0.8,0,1.5,0.3,2.1,0.8l2.2,2.2c0.6,0.6,0.9,1.3,0.9,2.1s-0.3,1.5-0.9,2.1L39.7,14.7z M37.6,16.8L12.4,42H6v-6.4l25.2-25.2
	L37.6,16.8z M32.2,15.8l-1.1-1.1l2.2,2.2L32.2,15.8z"/>
</svg>
