<?xml version="1.0" encoding="utf-8"?>
<!-- Generator: Adobe Illustrator 27.1.1, SVG Export Plug-In . SVG Version: 6.00 Build 0)  -->
<svg version="1.1" id="Layer_1" xmlns="http://www.w3.org/2000/svg" xmlns:xlink="http://www.w3.org/1999/xlink" x="0px" y="0px"
	 viewBox="0 0 48 48" style="enable-background:new 0 0 48 48;" xml:space="preserve">
<style type="text/css">
	.st0{fill:#FFFFFF;}
</style>
<path class="st0" d="M24.1,35.5c0.6,0,1.1-0.2,1.5-0.7c0.5-0.5,0.7-1,0.7-1.6c0-0.6-0.2-1.1-0.7-1.5c-0.5-0.4-1-0.6-1.6-0.6
	c-0.6,0-1.1,0.2-1.5,0.6c-0.4,0.4-0.7,1-0.7,1.6c0,0.6,0.2,1.1,0.7,1.6C23,35.2,23.5,35.5,24.1,35.5z M22,28.3h3.6
	c0-0.8,0.1-1.5,0.3-2.2s0.8-1.5,1.8-2.3c1-0.7,1.7-1.5,2.1-2.4c0.4-0.9,0.6-1.8,0.6-2.9c0-1.8-0.5-3.3-1.6-4.4
	c-1.1-1.1-2.5-1.7-4.4-1.7c-1.7,0-3.2,0.5-4.6,1.4c-1.3,0.9-2.3,2.2-3,3.7l3.4,1.2c0.4-1,0.9-1.7,1.6-2.2c0.7-0.5,1.4-0.7,2.2-0.7
	c0.8,0,1.5,0.2,2.1,0.7c0.6,0.5,0.9,1.1,0.9,2c0,0.6-0.2,1.2-0.6,1.8c-0.4,0.6-0.9,1.2-1.6,1.7c-0.9,0.8-1.6,1.6-2.1,2.6
	C22.2,25.7,22,26.9,22,28.3z M24,45c-2.9,0-5.6-0.5-8.2-1.6c-2.6-1.1-4.8-2.6-6.7-4.5c-1.9-1.9-3.4-4.1-4.5-6.7
	C3.5,29.6,3,26.9,3,24c0-2.9,0.5-5.7,1.6-8.2S7.2,11,9.1,9.1c1.9-1.9,4.1-3.4,6.7-4.5c2.5-1.1,5.3-1.7,8.2-1.7
	c2.9,0,5.7,0.6,8.2,1.7c2.6,1.1,4.8,2.6,6.7,4.5c1.9,1.9,3.4,4.1,4.5,6.7c1.1,2.6,1.6,5.3,1.6,8.2c0,2.9-0.6,5.6-1.7,8.2
	c-1.1,2.6-2.6,4.8-4.5,6.7c-1.9,1.9-4.1,3.4-6.7,4.5C29.7,44.5,26.9,45,24,45z M24,40.4c4.6,0,8.4-1.6,11.6-4.8s4.8-7.1,4.8-11.6
	c0-4.6-1.6-8.4-4.8-11.6C32.4,9.2,28.5,7.6,24,7.6c-4.5,0-8.4,1.6-11.6,4.8S7.6,19.5,7.6,24c0,4.5,1.6,8.4,4.8,11.6
	S19.4,40.4,24,40.4z"/>
</svg>
