<?xml version="1.0" encoding="utf-8"?>
<!-- Generator: Adobe Illustrator 27.1.1, SVG Export Plug-In . SVG Version: 6.00 Build 0)  -->
<svg version="1.1" id="Layer_1" xmlns="http://www.w3.org/2000/svg" xmlns:xlink="http://www.w3.org/1999/xlink" x="0px" y="0px"
	 viewBox="0 0 48 48" style="enable-background:new 0 0 48 48;" xml:space="preserve">
<style type="text/css">
	.st0{fill:#FFFFFF;}
</style>
<path class="st0" d="M23.9,42c-5,0-9.2-1.8-12.7-5.3C7.7,33.2,6,29,6,24h3c0,4.2,1.4,7.7,4.3,10.7S19.7,39,23.9,39
	c4.2,0,7.8-1.5,10.8-4.5S39,28,39,23.8c0-4.1-1.5-7.6-4.5-10.5S28,9,23.9,9c-2.3,0-4.4,0.5-6.4,1.6s-3.7,2.4-5.2,4.1h5.3v3H7.1V7.2
	h3v5.3c1.7-2,3.8-3.6,6.2-4.8S21.2,6,23.9,6c2.5,0,4.9,0.5,7,1.4c2.2,0.9,4.1,2.2,5.8,3.8c1.7,1.6,3,3.5,3.9,5.7s1.4,4.5,1.4,7
	s-0.5,4.9-1.4,7.1s-2.2,4.1-3.9,5.8c-1.6,1.6-3.6,2.9-5.8,3.9C28.7,41.5,26.4,42,23.9,42z M30.2,32.2l-7.7-7.6V13.9h3v9.5l6.9,6.7
	L30.2,32.2z"/>
</svg>
