<?xml version="1.0" encoding="utf-8"?>
<!-- Generator: Adobe Illustrator 27.1.1, SVG Export Plug-In . SVG Version: 6.00 Build 0)  -->
<svg version="1.1" id="Layer_1" xmlns="http://www.w3.org/2000/svg" xmlns:xlink="http://www.w3.org/1999/xlink" x="0px" y="0px"
	 viewBox="0 0 48 48" style="enable-background:new 0 0 48 48;" xml:space="preserve">
<style type="text/css">
	.st0{fill:#FFFFFF;}
</style>
<path class="st0" d="M10.1,40.1c-2.8,0-5.1-1-7-2.9c-1.9-1.9-2.9-4.3-2.9-7c0-2.7,1-5,2.9-7c1.9-2,4.3-2.9,7-2.9
	c2.2,0,4.2,0.8,6.1,2.3c1.9,1.5,3,3.4,3.4,5.7h2l-3.9-11h-3.7v-3.5h9.8v3.5h-2.5l1.2,3h10l-3.4-9h-5V7.8H29c0.9,0,1.6,0.2,2.2,0.6
	c0.6,0.4,1,1,1.3,1.8l3.7,10.1h1.7c2.8,0,5.1,0.9,7,2.8c1.9,1.9,2.9,4.2,2.9,6.9c0,2.8-0.9,5.1-2.8,7c-1.9,1.9-4.2,2.9-7,2.9
	c-2.4,0-4.5-0.8-6.3-2.3c-1.8-1.6-2.9-3.5-3.4-5.9h-8.5c-0.4,2.4-1.5,4.4-3.3,6C14.7,39.3,12.6,40.1,10.1,40.1z M10.1,36.7
	c1.4,0,2.7-0.5,3.8-1.4c1.1-0.9,1.9-2.1,2.3-3.5h-5.7v-3.5h5.8c-0.4-1.3-1.2-2.4-2.3-3.2s-2.4-1.3-3.8-1.3c-1.8,0-3.3,0.6-4.6,1.9
	c-1.3,1.3-1.9,2.8-1.9,4.5c0,1.8,0.6,3.3,1.9,4.6C6.8,36,8.4,36.7,10.1,36.7z M25.1,28.3h3.2c0.1-0.7,0.3-1.4,0.7-2.3
	s0.8-1.6,1.4-2.3h-6.5L25.1,28.3z M37.9,36.7c1.8,0,3.3-0.6,4.6-1.9c1.3-1.3,1.9-2.8,1.9-4.6c0-1.8-0.6-3.3-1.9-4.5
	s-2.6-1.8-4.2-1.9h-0.8l1.8,5.5l-3.2,1L34,25c-0.9,0.6-1.5,1.3-1.9,2.3c-0.4,1-0.6,2-0.6,3c0,1.8,0.6,3.3,1.9,4.6
	C34.6,36,36.1,36.7,37.9,36.7z"/>
</svg>
