<?xml version="1.0" encoding="utf-8"?>
<!-- Generator: Adobe Illustrator 27.1.1, SVG Export Plug-In . SVG Version: 6.00 Build 0)  -->
<svg version="1.1" id="Layer_1" xmlns="http://www.w3.org/2000/svg" xmlns:xlink="http://www.w3.org/1999/xlink" x="0px" y="0px"
	 viewBox="0 0 48 48" style="enable-background:new 0 0 48 48;" xml:space="preserve">
<style type="text/css">
	.st0{fill:#FFFFFF;}
</style>
<path class="st0" d="M24,29.5c1.7,0,3.3-0.4,4.6-1.2c1.4-0.8,2.5-1.9,3.3-3.2c-1.1-0.9-2.4-1.5-3.7-2s-2.8-0.6-4.2-0.6
	s-2.9,0.2-4.2,0.6c-1.3,0.4-2.6,1.1-3.7,2c0.8,1.3,1.9,2.4,3.3,3.2C20.7,29.1,22.3,29.5,24,29.5z M24,19.5c1,0,1.8-0.3,2.5-1
	c0.7-0.7,1-1.5,1-2.5c0-1-0.3-1.8-1-2.5c-0.7-0.7-1.5-1-2.5-1c-1,0-1.8,0.3-2.5,1c-0.7,0.7-1,1.5-1,2.5c0,1,0.3,1.8,1,2.5
	C22.2,19.2,23,19.5,24,19.5z M24,40c4.4-4,7.7-7.7,9.8-11s3.2-6.2,3.2-8.7c0-3.9-1.3-7.1-3.8-9.6C30.7,8.3,27.6,7,24,7
	s-6.7,1.3-9.2,3.8c-2.5,2.5-3.8,5.7-3.8,9.6c0,2.5,1.1,5.4,3.2,8.7S19.7,36,24,40z M24,44c-5.4-4.6-9.4-8.8-12-12.7s-4-7.5-4-10.9
	c0-5,1.6-9,4.8-11.9S19.8,4,24,4s8,1.5,11.2,4.4s4.8,7,4.8,11.9c0,3.3-1.3,7-4,10.9C33.4,35.2,29.4,39.4,24,44z"/>
</svg>
