<?xml version="1.0" encoding="utf-8"?>
<!-- Generator: Adobe Illustrator 27.1.1, SVG Export Plug-In . SVG Version: 6.00 Build 0)  -->
<svg version="1.1" id="Layer_1" xmlns="http://www.w3.org/2000/svg" xmlns:xlink="http://www.w3.org/1999/xlink" x="0px" y="0px"
	 viewBox="0 0 48 48" style="enable-background:new 0 0 48 48;" xml:space="preserve">
<style type="text/css">
	.st0{fill:#FFFFFF;}
</style>
<path class="st0" d="M9,42c-0.8,0-1.5-0.3-2.1-0.9C6.3,40.5,6,39.8,6,39V9c0-0.8,0.3-1.5,0.9-2.1S8.2,6,9,6h30
	c0.5,0,0.9,0.1,1.3,0.3C40.7,6.5,41,6.7,41.2,7L39,9.2V9H9v30h30V21.9l3-3V39c0,0.8-0.3,1.5-0.9,2.1C40.5,41.7,39.8,42,39,42H9z
	 M23.1,33.6L11.9,22.5l2.1-2.1l9,9l19.1-19.1l2.1,2.1L23.1,33.6z"/>
</svg>
