<?xml version="1.0" encoding="utf-8"?>
<!-- Generator: Adobe Illustrator 27.1.1, SVG Export Plug-In . SVG Version: 6.00 Build 0)  -->
<svg version="1.1" id="Layer_1" xmlns="http://www.w3.org/2000/svg" xmlns:xlink="http://www.w3.org/1999/xlink" x="0px" y="0px"
	 viewBox="0 0 48 48" style="enable-background:new 0 0 48 48;" xml:space="preserve">
<style type="text/css">
	.st0{fill:#FFFFFF;}
</style>
<path class="st0" d="M19.4,44l-1-6.3c-0.6-0.2-1.3-0.5-2-1c-0.7-0.4-1.3-0.8-1.8-1.2l-5.9,2.7L4,30l5.4-3.9c-0.1-0.3-0.1-0.6-0.1-1
	c0-0.4,0-0.7,0-1c0-0.3,0-0.6,0-1s0.1-0.7,0.1-1L4,18l4.7-8.2l5.9,2.7c0.5-0.4,1.1-0.9,1.8-1.2c0.7-0.4,1.4-0.7,2-0.9l1-6.4h9.2
	l1,6.3c0.6,0.2,1.3,0.5,2,0.9c0.7,0.4,1.3,0.8,1.8,1.3l5.9-2.7L44,18l-5.4,3.9c0.1,0.3,0.1,0.7,0.1,1.1c0,0.4,0,0.7,0,1.1
	s0,0.7,0,1.1c0,0.4-0.1,0.7-0.1,1L44,30l-4.6,8.2l-5.9-2.7c-0.5,0.4-1.1,0.9-1.8,1.3c-0.7,0.4-1.4,0.7-2,0.9l-1,6.3H19.4z M24,30.5
	c1.8,0,3.3-0.6,4.6-1.9s1.9-2.8,1.9-4.6c0-1.8-0.6-3.3-1.9-4.6c-1.3-1.3-2.8-1.9-4.6-1.9c-1.8,0-3.3,0.6-4.6,1.9
	c-1.3,1.3-1.9,2.8-1.9,4.6c0,1.8,0.6,3.3,1.9,4.6C20.7,29.9,22.2,30.5,24,30.5z M24,27.5c-1,0-1.8-0.3-2.5-1c-0.7-0.7-1-1.5-1-2.5
	s0.3-1.8,1-2.5c0.7-0.7,1.5-1,2.5-1s1.8,0.3,2.5,1s1,1.5,1,2.5s-0.3,1.8-1,2.5S25,27.5,24,27.5z M21.8,41h4.4l0.7-5.6
	c1.1-0.3,2.1-0.7,3.1-1.2c1-0.6,1.9-1.2,2.7-2.1l5.3,2.3l2-3.6l-4.7-3.5c0.1-0.6,0.2-1.1,0.3-1.7c0.1-0.6,0.1-1.1,0.1-1.7
	s0-1.1-0.1-1.7c-0.1-0.6-0.2-1.1-0.4-1.7l4.7-3.4l-2-3.6l-5.3,2.3c-0.8-0.9-1.6-1.6-2.6-2.2c-1-0.6-2-1-3.2-1.1L26.2,7h-4.4
	l-0.7,5.6c-1.1,0.2-2.2,0.6-3.2,1.2c-1,0.6-1.9,1.3-2.6,2.1L10,13.6l-2,3.6l4.7,3.4c-0.1,0.6-0.2,1.1-0.3,1.7
	c-0.1,0.5-0.1,1.1-0.1,1.7s0,1.1,0.1,1.7c0.1,0.5,0.2,1.1,0.3,1.7L8,30.8l2,3.6l5.3-2.3c0.8,0.8,1.7,1.5,2.7,2.1s2,1,3.1,1.2
	L21.8,41z"/>
</svg>
