<?xml version="1.0" encoding="utf-8"?>
<!-- Generator: Adobe Illustrator 27.1.1, SVG Export Plug-In . SVG Version: 6.00 Build 0)  -->
<svg version="1.1" id="Layer_1" xmlns="http://www.w3.org/2000/svg" xmlns:xlink="http://www.w3.org/1999/xlink" x="0px" y="0px"
	 viewBox="0 0 48 48" style="enable-background:new 0 0 48 48;" xml:space="preserve">
<style type="text/css">
	.st0{fill:#FFFFFF;}
</style>
<path class="st0" d="M24,40c4.4-4,7.7-7.7,9.8-11s3.2-6.2,3.2-8.7c0-3.9-1.3-7.1-3.8-9.6C30.7,8.3,27.6,7,24,7s-6.7,1.3-9.2,3.8
	c-2.5,2.5-3.8,5.7-3.8,9.6c0,2.5,1.1,5.4,3.2,8.7S19.7,36,24,40z M24,44c-5.4-4.6-9.4-8.8-12-12.7s-4-7.5-4-10.9c0-5,1.6-9,4.8-11.9
	S19.8,4,24,4s8,1.5,11.2,4.4s4.8,7,4.8,11.9c0,3.3-1.3,7-4,10.9C33.4,35.2,29.4,39.4,24,44z M19.5,25.5l0.9-3.7
	c0.1-0.2,0-0.5-0.2-0.7l-2.9-2.5c-0.5-0.4-0.2-1.2,0.4-1.2l3.8-0.3c0.3,0,0.5-0.2,0.6-0.4l1.5-3.5c0.2-0.6,1-0.6,1.3,0l1.5,3.5
	c0.1,0.2,0.3,0.4,0.6,0.4l3.8,0.3c0.6,0.1,0.9,0.8,0.4,1.2l-2.9,2.5c-0.2,0.2-0.3,0.4-0.2,0.7l0.9,3.7c0.1,0.6-0.5,1.1-1,0.7l-3.2-2
	c-0.2-0.1-0.5-0.1-0.7,0l-3.2,2C20,26.6,19.3,26.1,19.5,25.5z"/>
</svg>
