<?xml version="1.0" encoding="utf-8"?>
<!-- Generator: Adobe Illustrator 27.1.1, SVG Export Plug-In . SVG Version: 6.00 Build 0)  -->
<svg version="1.1" id="Layer_1" xmlns="http://www.w3.org/2000/svg" xmlns:xlink="http://www.w3.org/1999/xlink" x="0px" y="0px"
	 viewBox="0 0 48 48" style="enable-background:new 0 0 48 48;" xml:space="preserve">
<style type="text/css">
	.st0{fill:#FFFFFF;}
</style>
<path class="st0" d="M42.5,15.5C40.2,13.2,37.3,12,34,12H14c-3.3,0-6.2,1.2-8.5,3.5S2,20.7,2,24s1.2,6.2,3.5,8.5S10.7,36,14,36h20
	c3.3,0,6.2-1.2,8.5-3.5S46,27.3,46,24S44.8,17.8,42.5,15.5z M14.1,34c-5.6,0-10-4.5-10-10s4.5-10,10-10s10,4.5,10,10
	S19.7,34,14.1,34z"/>
</svg>
