<?xml version="1.0" encoding="utf-8"?>
<!-- Generator: Adobe Illustrator 27.1.1, SVG Export Plug-In . SVG Version: 6.00 Build 0)  -->
<svg version="1.1" id="Layer_1" xmlns="http://www.w3.org/2000/svg" xmlns:xlink="http://www.w3.org/1999/xlink" x="0px" y="0px"
	 viewBox="0 0 48 48" style="enable-background:new 0 0 48 48;" xml:space="preserve">
<style type="text/css">
	.st0{fill:#FFFFFF;}
</style>
<path class="st0" d="M14,36c-3.3,0-6.2-1.2-8.5-3.5S2,27.3,2,24s1.2-6.2,3.5-8.5S10.7,12,14,12h20c3.3,0,6.2,1.2,8.5,3.5
	c2.3,2.3,3.5,5.2,3.5,8.5s-1.2,6.2-3.5,8.5C40.2,34.8,37.3,36,34,36H14z M14,33h20c2.5,0,4.6-0.9,6.4-2.6S43,26.5,43,24
	s-0.9-4.6-2.6-6.4S36.5,15,34,15H14c-2.5,0-4.6,0.9-6.4,2.6S5,21.5,5,24s0.9,4.6,2.6,6.4S11.5,33,14,33z M13.9,29.1
	c1.4,0,2.6-0.5,3.6-1.5c1-1,1.5-2.2,1.5-3.6c0-1.4-0.5-2.6-1.5-3.6c-1-1-2.2-1.5-3.6-1.5c-1.4,0-2.6,0.5-3.6,1.5
	c-1,1-1.5,2.2-1.5,3.6c0,1.4,0.5,2.6,1.5,3.6C11.4,28.6,12.5,29.1,13.9,29.1z"/>
</svg>
