<?xml version="1.0" encoding="utf-8"?>
<!-- Generator: Adobe Illustrator 27.1.1, SVG Export Plug-In . SVG Version: 6.00 Build 0)  -->
<svg version="1.1" id="Layer_1" xmlns="http://www.w3.org/2000/svg" xmlns:xlink="http://www.w3.org/1999/xlink" x="0px" y="0px"
	 viewBox="0 0 48 48" style="enable-background:new 0 0 48 48;" xml:space="preserve">
<style type="text/css">
	.st0{fill:#FFFFFF;}
</style>
<path class="st0" d="M23.2,2c2.4,0,4.5,0.9,6.2,2.5c1.7,1.7,2.6,3.8,2.6,6.2c0,1.4-0.3,2.7-0.9,4s-1.6,2.3-2.9,3.1v-6.5
	c0-1.4-0.5-2.6-1.4-3.5c-1-0.9-2.2-1.4-3.6-1.4S20.7,7,19.7,7.9c-1,0.9-1.5,2.1-1.5,3.5v6.5c-1.2-0.8-2.1-1.8-2.8-3.1
	c-0.7-1.3-1-2.6-1-4.1c0-2.4,0.9-4.4,2.6-6.2C18.8,2.8,20.9,2,23.2,2z M22.2,44c-0.6,0-1.1-0.1-1.6-0.3c-0.5-0.2-0.9-0.5-1.3-0.9
	L9.5,33l1.2-1.2c0.4-0.4,0.8-0.7,1.2-0.8s0.9-0.1,1.5,0l6.3,1.1V11.5c0-1,0.3-1.8,1-2.5c0.7-0.7,1.5-1,2.5-1s1.8,0.3,2.5,1
	s1,1.5,1,2.5v11h0.5c0.4,0,0.9,0.1,1.4,0.1c0.5,0.1,1,0.3,1.5,0.5l7.4,3.2c0.9,0.4,1.6,1.1,2,2c0.4,0.9,0.5,1.9,0.4,2.9l-1.7,9.5
	c-0.2,1-0.6,1.8-1.4,2.4S35.1,44,34.2,44H22.2z"/>
</svg>
