<?xml version="1.0" encoding="utf-8"?>
<!-- Generator: Adobe Illustrator 27.1.1, SVG Export Plug-In . SVG Version: 6.00 Build 0)  -->
<svg version="1.1" id="Layer_1" xmlns="http://www.w3.org/2000/svg" xmlns:xlink="http://www.w3.org/1999/xlink" x="0px" y="0px"
	 viewBox="0 0 48 48" style="enable-background:new 0 0 48 48;" xml:space="preserve">
<style type="text/css">
	.st0{fill:#FFFFFF;}
</style>
<path class="st0" d="M28,41.5v-3.1c3.2-0.9,5.9-2.7,7.9-5.4c2.1-2.6,3.1-5.7,3.1-9c0-3.4-1-6.4-3-9.1s-4.7-4.5-8-5.4V6.4
	c4.1,0.9,7.5,3,10.1,6.3C40.7,16,42,19.7,42,24s-1.3,8-3.9,11.2C35.5,38.4,32.1,40.5,28,41.5z M6,30V18h8L24,8v32L14,30H6z M27,32.4
	V15.6c1.8,0.6,3.3,1.6,4.4,3.2c1.1,1.6,1.6,3.3,1.6,5.2c0,1.9-0.5,3.6-1.6,5.2S28.8,31.8,27,32.4z M21,15.6L15.4,21H9v6h6.4l5.6,5.5
	V15.6z"/>
</svg>
