<?xml version="1.0" encoding="utf-8"?>
<!-- Generator: Adobe Illustrator 27.1.1, SVG Export Plug-In . SVG Version: 6.00 Build 0)  -->
<svg version="1.1" id="Layer_1" xmlns="http://www.w3.org/2000/svg" xmlns:xlink="http://www.w3.org/1999/xlink" x="0px" y="0px"
	 viewBox="0 0 48 48" style="enable-background:new 0 0 48 48;" xml:space="preserve">
<style type="text/css">
	.st0{fill:#FFFFFF;}
</style>
<path class="st0" d="M40.7,45.2L34,38.6c-0.9,0.7-1.9,1.2-3,1.7s-2.2,0.9-3.4,1.1v-3.1c0.8-0.2,1.5-0.5,2.2-0.8s1.4-0.7,2-1.1
	l-8.2-8.3V40l-10-10h-8V18h7.8L2.5,7l2.1-2.2L42.8,43L40.7,45.2z M38.9,33.6l-2.2-2.1c0.7-1.1,1.2-2.3,1.5-3.6s0.5-2.6,0.5-3.9
	c0-3.4-1-6.5-3-9.2s-4.7-4.4-8-5.2V6.4c4.1,0.9,7.5,3,10.1,6.3c2.6,3.2,3.9,7,3.9,11.2c0,1.7-0.2,3.4-0.7,5
	C40.5,30.6,39.8,32.1,38.9,33.6z M32.2,26.9l-4.5-4.5v-6.5c1.6,0.7,2.8,1.8,3.7,3.3s1.3,3.1,1.3,4.8c0,0.5,0,1-0.1,1.5
	C32.4,26,32.3,26.4,32.2,26.9z M23.6,18.4l-5.2-5.2L23.6,8V18.4z M20.6,32.7v-7.5L16.5,21H8.7v6h6.3L20.6,32.7z"/>
</svg>
